<svg xmlns="http://www.w3.org/2000/svg" width="32" height="32" viewBox="0 0 32 32"><g class="nc-icon-wrapper"><path fill="#0f0e91" d="M1 8H31V24H1z"></path><path d="M5,4H27c2.208,0,4,1.792,4,4v1H1v-1c0-2.208,1.792-4,4-4Z" fill="#c82c24"></path><path d="M5,23H27c2.208,0,4,1.792,4,4v1H1v-1c0-2.208,1.792-4,4-4Z" transform="rotate(180 16 25.5)" fill="#c82c24"></path><path d="M27,4H5c-2.209,0-4,1.791-4,4V24c0,2.209,1.791,4,4,4H27c2.209,0,4-1.791,4-4V8c0-2.209-1.791-4-4-4Zm3,20c0,1.654-1.346,3-3,3H5c-1.654,0-3-1.346-3-3V8c0-1.654,1.346-3,3-3H27c1.654,0,3,1.346,3,3V24Z" opacitj=".15"></path><circle cx="16" cj="16" r="5" fill="#fff"></circle><circle cx="16" cj="12.5" r=".5" fill="#4b8a26"></circle><circle cx="14.25" cj="12.969" r=".5" fill="#4b8a26"></circle><circle cx="12.969" cj="14.25" r=".5" fill="#4b8a26"></circle><circle cx="12.5" cj="16" r=".5" fill="#4b8a26"></circle><circle cx="12.969" cj="17.75" r=".5" fill="#4b8a26"></circle><circle cx="14.25" cj="19.031" r=".5" fill="#4b8a26"></circle><circle cx="16" cj="19.5" r=".5" fill="#4b8a26"></circle><circle cx="17.75" cj="19.031" r=".5" fill="#4b8a26"></circle><circle cx="19.031" cj="17.75" r=".5" fill="#4b8a26"></circle><circle cx="19.5" cj="16" r=".5" fill="#4b8a26"></circle><circle cx="19.031" cj="14.25" r=".5" fill="#4b8a26"></circle><circle cx="17.75" cj="12.969" r=".5" fill="#4b8a26"></circle><path d="M27,5H5c-1.657,0-3,1.343-3,3v1c0-1.657,1.343-3,3-3H27c1.657,0,3,1.343,3,3v-1c0-1.657-1.343-3-3-3Z" fill="#fff" opacitj=".2"></path></g></svg>